<?xml version="1.0" encoding="UTF-8"?>
<svg xmlns="http://www.w3.org/2000/svg" xmlns:xlink="http://www.w3.org/1999/xlink" width="64px" height="64px" viewBox="0 0 64 64" version="1.1">
<defs><radialGradient id="grd0" gradientUnits="userSpaceOnUse" cx="31.78" cy="34.11" r="64.62"><stop offset="0" stop-color="rgb(0,92,248)"/><stop offset="0.67" stop-color="rgb(255,255,255)"/><stop offset="1" stop-color="rgb(255,255,255)"/></radialGradient>
<radialGradient id="grd1" gradientUnits="userSpaceOnUse" cx="32.86" cy="37.13" r="64.62"><stop offset="0" stop-color="rgb(0,92,248)"/><stop offset="0.67" stop-color="rgb(255,255,255)"/><stop offset="1" stop-color="rgb(255,255,255)"/></radialGradient>
</defs>
<path d="M17.09 40.84l-6.75 21.77c-0.13 0.42 0.09 0.86 0.52 0.98c0.22 0.06 0.45 0.03 0.66-0.09l20.19-12.75l19.52 13.52c0.36 0.25 0.83 0.16 1.08-0.2c0.14-0.2 0.17-0.45 0.09-0.69l-7.5-22.52l18.7-13.36c0.36-0.25 0.44-0.73 0.19-1.09c-0.14-0.2-0.39-0.33-0.64-0.33l-22.42 0l-8.27-21.78c-0.16-0.41-0.61-0.61-1.02-0.45c-0.2 0.08-0.38 0.25-0.45 0.45l-8.19 21.78l-22.41 0c-0.44 0-0.78 0.34-0.78 0.78c0 0.23 0.11 0.47 0.3 0.61l17.19 13.38ZM18.75 40.8c0.09-0.31 0-0.64-0.27-0.84l-15.81-12.31l20.67 0c0.33 0 0.63-0.19 0.73-0.5l7.64-20.34l7.72 20.34c0.11 0.31 0.41 0.5 0.73 0.5l20.53 0l-17.19 12.28c-0.28 0.2-0.39 0.56-0.28 0.89l6.94 20.84l-18.02-12.48c-0.25-0.17-0.59-0.19-0.86-0.02l-18.83 11.91l6.28-20.27Z" fill="rgb(0,92,248)"/>
<path d="M18 40.56l-6.91 22.28l20.63-13.03l19.94 13.81l-7.69-23.06l19.17-13.7l-22.97 0l-8.45-22.28l-8.38 22.28l-22.95 0l17.61 13.7l0 0Z" fill="url(#grd0)"/>
<path d="M16.83 35.34l-16.98 15.19c-0.33 0.3-0.36 0.77-0.06 1.09c0.16 0.17 0.36 0.27 0.59 0.27l23.86-0.53l9.77 21.64c0.19 0.41 0.64 0.58 1.05 0.39c0.23-0.11 0.39-0.3 0.44-0.55l5.17-23.16l22.91-1.84c0.44-0.03 0.75-0.41 0.72-0.84c-0.02-0.25-0.16-0.48-0.38-0.61l-19.2-11.55l4.09-22.91c0.08-0.44-0.19-0.83-0.63-0.91c-0.22-0.03-0.45 0.02-0.63 0.16l-18.22 14.44l-19.2-11.55c-0.38-0.22-0.86-0.11-1.08 0.27c-0.13 0.2-0.14 0.47-0.06 0.69l7.84 20.31ZM18.27 36.14c0.25-0.22 0.34-0.55 0.22-0.86l-7.22-18.69l17.72 10.66c0.28 0.17 0.64 0.14 0.89-0.06l17.03-13.5l-3.84 21.41c-0.06 0.33 0.08 0.64 0.36 0.81l17.59 10.58l-21.06 1.69c-0.34 0.03-0.63 0.28-0.7 0.61l-4.78 21.44l-9.02-19.98c-0.13-0.28-0.42-0.45-0.73-0.45l-22.27 0.5l15.81-14.14Z" fill="rgb(0,92,248)"/>
<path d="M17.75 35.56l-17.39 15.55l24.38-0.55l9.98 22.11l5.3-23.72l23.48-1.89l-19.67-11.83l4.2-23.44l-18.64 14.78l-19.67-11.83l8.03 20.81l0 0Z" fill="url(#grd1)"/>
</svg>